mtllib BlindFold.mtl
g Blindfold

# Vertex Positions:
v 37.15435 0 30.66328
v 33.13084 0 32.22326
v 31.14461 0 32.67493
v 35.03876 0 31.60672
v 36.84476 0 30.83292
v -38.29575 28.73375 25.39109
v -45.4395 0 19.76215
v -38.29575 0 25.39109
v -45.4395 28.73375 19.76215
v -32.3028 28.73375 28.62279
v -38.29575 0 25.39109
v -32.3028 0 28.62279
v -38.29575 28.73375 25.39109
v -17.72623 28.73375 33.13559
v -32.3028 0 28.62279
v -17.72623 0 33.13559
v -32.3028 28.73375 28.62279
v -45.4395 28.73375 -19.66215
v -45.4395 0 19.76215
v -45.4395 28.73375 19.76215
v -45.4395 0 -19.66215
v -45.4395 0 -19.66215
v -38.29575 28.73375 -25.4201
v -38.29575 0 -25.4201
v -45.4395 28.73375 -19.66215
v -38.29575 28.73375 -25.4201
v -34.01493 0 -27.88998
v -38.29575 0 -25.4201
v -34.01493 28.73375 -27.88998
v -34.01493 28.73375 -27.88998
v -19.72005 0 -32.67493
v -34.01493 0 -27.88998
v -19.72005 28.73375 -32.67493
v -19.72005 28.73375 -32.67493
v -3.69201 0 -35.23312
v -19.72005 0 -32.67493
v -3.69201 28.73375 -35.23312
v -3.69201 28.73375 -35.23312
v 12.97693 0 -35.39025
v -3.69201 0 -35.23312
v 12.97693 28.73375 -35.39025
v 12.97693 28.73375 -35.39025
v 29.15079 0 -33.13558
v 12.97693 0 -35.39025
v 29.15079 28.73375 -33.13558
v 29.15079 28.73375 -33.13558
v 36.43908 0 -30.87919
v 29.15079 0 -33.13558
v 36.43908 28.73375 -30.87919
v 36.43908 28.73375 -30.87919
v 37.81684 0 -29.71822
v 36.43908 0 -30.87919
v 37.81684 28.73375 -29.71822
v 37.81684 28.73375 -29.71822
v 39.09437 0 -28.49284
v 37.81684 0 -29.71822
v 39.09437 28.73375 -28.49284
v 39.09437 0 -28.49284
v 40.26649 28.73375 -27.20804
v 40.26649 0 -27.20804
v 39.09437 28.73375 -28.49284
v 40.26649 0 -27.20804
v 41.32841 28.73375 -25.86905
v 41.32841 0 -25.86905
v 40.26649 28.73375 -27.20804
v -45.4395 28.73375 19.76215
v -41.86732 28.73375 18.66623
v -41.86732 28.73375 -18.58406
v -38.29575 28.73375 25.39109
v -35.95639 28.73375 23.32377
v -32.3028 28.73375 28.62279
v -30.57259 28.73375 26.22699
v -17.72623 28.73375 33.13559
v -16.7196 28.73375 30.51577
v -1.55237 28.73375 35.39025
v -1.24945 28.73375 32.67234
v 15.11657 28.73375 35.23313
v 14.72361 28.73375 32.52177
v 30.04577 28.73375 30.07624
v 31.14461 28.73375 32.67493
v 35.37034 28.73375 28.29394
v 37.15435 28.73375 30.66328
v 36.27597 28.73375 27.79771
v 37.5176 28.73375 26.94304
v 38.52649 28.73375 29.91144
v 38.62662 28.73375 25.98883
v 40.06312 28.73375 28.85369
v 39.58931 28.73375 24.94691
v 40.39377 28.73375 23.83015
v 41.43566 28.73375 27.67277
v 41.03003 28.73375 22.6524
v 41.49018 28.73375 21.42823
v 42.62709 28.73375 26.38328
v 41.76859 28.73375 20.17278
v 41.86731 28.73375 18.82603
v 41.86731 28.73375 -13.85267
v 42.27583 28.73375 -24.48131
v 42.86969 28.73375 -23.45634
v 43.62268 28.73375 25.00119
v 43.10485 28.73375 -23.05048
v 43.81214 28.73375 -21.58238
v 44.4101 28.73375 23.5436
v 44.39479 28.73375 -20.083
v 44.85044 28.73375 -18.55842
v 44.9796 28.73375 22.02856
v 45.17725 28.73375 -17.01486
v 45.32416 28.73375 20.47482
v 45.37387 28.73375 -15.45861
v 45.4395 28.73375 18.9016
v 45.4395 28.73375 -13.89599
v -45.4395 28.73375 -19.66215
v -38.29575 28.73375 -25.4201
v -35.89992 28.73375 -23.39386
v -34.01493 28.73375 -27.88998
v -32.19006 28.73375 -25.53432
v -19.72005 28.73375 -32.67493
v -18.62121 28.73375 -30.07623
v -3.69201 28.73375 -35.23312
v -3.29905 28.73375 -32.52177
v 12.97693 28.73375 -35.39025
v 12.67401 28.73375 -32.67234
v 28.14416 28.73375 -30.51577
v 29.15079 28.73375 -33.13558
v 34.33413 28.73375 -28.5994
v 36.43908 28.73375 -30.87919
v 35.08783 28.73375 -27.96429
v 36.22376 28.73375 -26.87475
v 37.26594 28.73375 -25.73237
v 37.81684 28.73375 -29.71822
v 38.21016 28.73375 -24.54181
v 39.09437 28.73375 -28.49284
v 39.05254 28.73375 -23.3079
v 39.60046 28.73375 -22.36224
v 40.26649 28.73375 -27.20804
v 39.78967 28.73375 -22.03569
v 40.41854 28.73375 -20.73033
v 41.32841 28.73375 -25.86905
v 40.93662 28.73375 -19.39715
v 41.34175 28.73375 -18.04157
v 41.63233 28.73375 -16.66912
v 41.80715 28.73375 -15.28539
v 45.4395 0 -13.89599
v 45.4395 28.73375 18.9016
v 45.4395 0 18.9016
v 45.4395 28.73375 -13.89599
v 45.4395 0 18.9016
v 45.32416 28.73375 20.47482
v 45.32416 0 20.47482
v 45.4395 28.73375 18.9016
v 45.32416 0 20.47482
v 44.9796 28.73375 22.02856
v 44.9796 0 22.02856
v 45.32416 28.73375 20.47482
v 44.9796 0 22.02856
v 44.4101 28.73375 23.5436
v 44.4101 0 23.5436
v 44.9796 28.73375 22.02856
v 44.4101 0 23.5436
v 43.62268 28.73375 25.00119
v 43.62268 0 25.00119
v 44.4101 28.73375 23.5436
v 43.62268 0 25.00119
v 42.62709 28.73375 26.38328
v 42.62709 0 26.38328
v 43.62268 28.73375 25.00119
v 42.62709 0 26.38328
v 41.43566 28.73375 27.67277
v 41.43566 0 27.67277
v 42.62709 28.73375 26.38328
v 41.43566 28.73375 27.67277
v 40.06312 0 28.85369
v 41.43566 0 27.67277
v 40.06312 28.73375 28.85369
v 40.06312 28.73375 28.85369
v 38.52649 0 29.91144
v 40.06312 0 28.85369
v 38.52649 28.73375 29.91144
v 38.52649 28.73375 29.91144
v 37.15435 0 30.66328
v 38.52649 0 29.91144
v 37.15435 28.73375 30.66328
v 37.15435 28.73375 30.66328
v 31.14461 0 32.67493
v 37.15435 0 30.66328
v 31.14461 28.73375 32.67493
v 31.14461 28.73375 32.67493
v 15.11657 0 35.23313
v 31.14461 0 32.67493
v 15.11657 28.73375 35.23313
v 15.11657 28.73375 35.23313
v -1.55237 0 35.39025
v 15.11657 0 35.23313
v -1.55237 28.73375 35.39025
v -1.55237 28.73375 35.39025
v -17.72623 0 33.13559
v -1.55237 0 35.39025
v -17.72623 28.73375 33.13559
v 41.32841 0 -25.86905
v 42.27583 28.73375 -24.48131
v 42.27583 0 -24.48131
v 41.32841 28.73375 -25.86905
v 42.27583 0 -24.48131
v 42.86969 28.73375 -23.45634
v 42.86969 0 -23.45634
v 42.27583 28.73375 -24.48131
v 42.86969 0 -23.45634
v 43.10485 28.73375 -23.05048
v 43.10485 0 -23.05048
v 42.86969 28.73375 -23.45634
v 43.10485 0 -23.05048
v 43.81214 28.73375 -21.58238
v 43.81214 0 -21.58238
v 43.10485 28.73375 -23.05048
v 43.81214 0 -21.58238
v 44.39479 28.73375 -20.083
v 44.39479 0 -20.083
v 43.81214 28.73375 -21.58238
v 44.39479 0 -20.083
v 44.85044 28.73375 -18.55842
v 44.85044 0 -18.55842
v 44.39479 28.73375 -20.083
v 44.85044 0 -18.55842
v 45.17725 28.73375 -17.01486
v 45.17725 0 -17.01486
v 44.85044 28.73375 -18.55842
v 45.17725 0 -17.01486
v 45.37387 28.73375 -15.45861
v 45.37387 0 -15.45861
v 45.17725 28.73375 -17.01486
v 45.37387 0 -15.45861
v 45.4395 28.73375 -13.89599
v 45.4395 0 -13.89599
v 45.37387 28.73375 -15.45861

# Vertex Texture Coordinates:
vt -32.51727 1.86101 
vt -30.9332 1.24685 
vt -30.15122 1.06903 
vt -31.68435 1.48958 
vt -32.39538 1.79423 
vt -0.22732 11.3125 
vt -3.80801 0 
vt -0.22732 0 
vt -3.80801 11.3125 
vt 3.28763 11.3125 
vt 0.60701 0 
vt 3.28763 0 
vt 0.60701 11.3125 
vt 10.16015 11.3125 
vt 4.15261 0 
vt 10.16015 0 
vt 4.15261 11.3125 
vt -21.67418 11.3125 
vt -6.15279 0 
vt -6.15279 11.3125 
vt -21.67418 0 
vt -13.60152 0 
vt -17.21386 11.3125 
vt -17.21386 -0 
vt -13.60152 11.3125 
vt -14.40065 11.3125 
vt -16.34641 -0 
vt -14.40065 -0 
vt -16.34641 11.3125 
vt -12.17331 11.3125 
vt -18.10813 -0 
vt -12.17331 -0 
vt -18.10813 11.3125 
vt -14.22281 11.3125 
vt -20.61293 -0 
vt -14.22281 -0 
vt -20.61293 11.3125 
vt -16.69736 11.3125 
vt -23.26023 -0 
vt -16.69736 -0 
vt -23.26023 11.3125 
vt -18.93092 11.3125 
vt -25.36016 0 
vt -18.93092 0 
vt -25.36016 11.3125 
vt -20.07384 11.3125 
vt -23.07761 0 
vt -20.07384 0 
vt -23.07761 11.3125 
vt -7.83883 11.3125 
vt -8.54816 0 
vt -7.83883 0 
vt -8.54816 11.3125 
vt -5.91167 11.3125 
vt -6.6086 0 
vt -5.91167 0 
vt -6.6086 11.3125 
vt -3.84992 0 
vt -4.53462 11.3125 
vt -4.53462 0 
vt -3.84992 11.3125 
vt -1.65741 0 
vt -2.33023 11.3125 
vt -2.33023 0 
vt -1.65741 11.3125 
vt 0 6.15279 
vt 1.40637 6.58426 
vt 1.40637 21.24973 
vt 2.8125 3.93668 
vt 3.73351 4.75058 
vt 5.17193 2.66436 
vt 5.85311 3.60758 
vt 10.91073 0.88766 
vt 11.30705 1.91909 
vt 17.27839 0 
vt 17.39766 1.07004 
vt 23.84097 0.06186 
vt 23.68626 1.12932 
vt 29.71861 2.09213 
vt 30.15122 1.06903 
vt 31.8149 2.79382 
vt 32.51727 1.86101 
vt 32.17144 2.98919 
vt 32.66027 3.32568 
vt 33.05747 2.15701 
vt 33.0969 3.70135 
vt 33.66245 2.57345 
vt 33.47591 4.11155 
vt 33.79263 4.55122 
vt 34.20282 3.03838 
vt 34.04312 5.0149 
vt 34.22429 5.49686 
vt 34.67188 3.54605 
vt 34.33389 5.99113 
vt 34.37276 6.52135 
vt 34.37276 19.38698 
vt 34.53359 23.57148 
vt 34.7674 23.16795 
vt 35.06385 4.09018 
vt 34.85998 23.00816 
vt 35.13844 22.43017 
vt 35.37386 4.66404 
vt 35.36783 21.83986 
vt 35.54722 21.23963 
vt 35.59807 5.26051 
vt 35.67588 20.63193 
vt 35.73372 5.87222 
vt 35.75329 20.01924 
vt 35.77913 6.4916 
vt 35.77913 19.40403 
vt -0 21.67418 
vt 2.8125 23.94108 
vt 3.75574 23.14335 
vt 4.49786 24.91348 
vt 5.21631 23.98605 
vt 10.12577 26.79731 
vt 10.55838 25.77421 
vt 16.43602 27.80448 
vt 16.59072 26.73702 
vt 22.99859 27.86634 
vt 22.87933 26.7963 
vt 28.96994 25.94725 
vt 29.36625 26.97868 
vt 31.40694 25.19278 
vt 32.23566 26.09033 
vt 31.70367 24.94273 
vt 32.15089 24.51378 
vt 32.5612 24.06403 
vt 32.77808 25.63326 
vt 32.93293 23.5953 
vt 33.28105 25.15083 
vt 33.26458 23.10951 
vt 33.4803 22.7372 
vt 33.74252 24.645 
vt 33.55479 22.60864 
vt 33.80238 22.09472 
vt 34.16059 24.11783 
vt 34.00634 21.56984 
vt 34.16585 21.03615 
vt 34.28025 20.49582 
vt 34.34907 19.95104 
vt 19.40403 0 
vt 6.4916 11.3125 
vt 6.4916 0 
vt 19.40403 11.3125 
vt 9.09003 0 
vt 8.46899 11.3125 
vt 8.46899 0 
vt 9.09003 11.3125 
vt 13.46917 0 
vt 12.8426 11.3125 
vt 12.8426 0 
vt 13.46917 11.3125 
vt 17.44987 0 
vt 16.81264 11.3125 
vt 16.81264 0 
vt 17.44987 11.3125 
vt 20.91678 0 
vt 20.26455 11.3125 
vt 20.26455 0 
vt 20.91678 11.3125 
vt 23.81331 0 
vt 23.1427 11.3125 
vt 23.1427 0 
vt 23.81331 11.3125 
vt 26.13386 0 
vt 25.44266 11.3125 
vt 25.44266 0 
vt 26.13386 11.3125 
vt 27.90859 11.3125 
vt 27.19574 0 
vt 27.90859 0 
vt 27.19574 11.3125 
vt 29.18739 11.3125 
vt 28.45294 0 
vt 29.18739 0 
vt 28.45294 11.3125 
vt 30.02723 11.3125 
vt 29.41124 0 
vt 30.02723 0 
vt 29.41124 11.3125 
vt 31.42635 11.3125 
vt 28.93128 0 
vt 31.42635 0 
vt 28.93128 11.3125 
vt 29.94285 11.3125 
vt 23.55273 0 
vt 29.94285 0 
vt 23.55273 11.3125 
vt 23.84049 11.3125 
vt 17.27763 0 
vt 23.84049 0 
vt 17.27763 11.3125 
vt 17.11292 11.3125 
vt 10.68368 0 
vt 17.11292 0 
vt 10.68368 11.3125 
vt 0.65776 0 
vt -0.00377 11.3125 
vt -0.00377 0 
vt 0.65776 11.3125 
vt 3.08246 0 
vt 2.61609 11.3125 
vt 2.61609 0 
vt 3.08246 11.3125 
vt 2.61609 0 
vt 2.43141 11.3125 
vt 2.43141 0 
vt 2.61609 11.3125 
vt 5.59795 0 
vt 4.95638 11.3125 
vt 4.95638 0 
vt 5.59795 11.3125 
vt 8.17967 0 
vt 7.54636 11.3125 
vt 7.54636 0 
vt 8.17967 11.3125 
vt 10.79745 0 
vt 10.17099 11.3125 
vt 10.17099 0 
vt 10.79745 11.3125 
vt 13.41625 0 
vt 12.79508 11.3125 
vt 12.79508 0 
vt 13.41625 11.3125 
vt 15.99757 0 
vt 15.38 11.3125 
vt 15.38 0 
vt 15.99757 11.3125 
vt 18.50136 0 
vt 17.88561 11.3125 
vt 17.88561 0 
vt 18.50136 11.3125 

# Vertex Surface Normals:
vn 0 -1 0
vn 0 -1 0
vn 0 -1 0
vn 0 -1 0
vn 0 -1 0
vn -0.61891 0 0.78546
vn -0.61891 0 0.78546
vn -0.61891 0 0.78546
vn -0.61891 0 0.78546
vn -0.38702 0 0.92207
vn -0.47464 0 0.88018
vn -0.38702 0 0.92207
vn -0.47464 0 0.88018
vn -0.21762 0 0.97603
vn -0.38702 0 0.92207
vn -0.21762 0 0.97603
vn -0.38702 0 0.92207
vn -1 0 0
vn -1 0 0
vn -1 0 0
vn -1 0 0
vn -0.62754 0 -0.77858
vn -0.62754 0 -0.77858
vn -0.62754 0 -0.77858
vn -0.62754 0 -0.77858
vn -0.49975 0 -0.86617
vn -0.41064 0 -0.9118
vn -0.49975 0 -0.86617
vn -0.41064 0 -0.9118
vn -0.41064 0 -0.9118
vn -0.23832 0 -0.97119
vn -0.41064 0 -0.9118
vn -0.23832 0 -0.97119
vn -0.23832 0 -0.97119
vn -0.08375 0 -0.99649
vn -0.23832 0 -0.97119
vn -0.08375 0 -0.99649
vn -0.08375 0 -0.99649
vn 0.0645 -0 -0.99792
vn -0.08375 0 -0.99649
vn 0.0645 -0 -0.99792
vn 0.0645 -0 -0.99792
vn 0.21762 -0 -0.97603
vn 0.0645 -0 -0.99792
vn 0.21762 -0 -0.97603
vn 0.21762 -0 -0.97603
vn 0.29574 -0 -0.95527
vn 0.21762 -0 -0.97603
vn 0.29574 -0 -0.95527
vn 0.64438 -0 -0.76471
vn 0.66864 -0 -0.74358
vn 0.64438 -0 -0.76471
vn 0.66864 -0 -0.74358
vn 0.66864 -0 -0.74358
vn 0.71589 -0 -0.69822
vn 0.66864 -0 -0.74358
vn 0.71589 -0 -0.69822
vn 0.71589 -0 -0.69822
vn 0.76159 -0 -0.64806
vn 0.76159 -0 -0.64806
vn 0.71589 -0 -0.69822
vn 0.76159 -0 -0.64806
vn 0.80521 -0 -0.59299
vn 0.80521 -0 -0.59299
vn 0.76159 -0 -0.64806
vn 0 1 0
vn 0 1 0
vn 0 1 0
vn 0 1 0
vn 0 1 0
vn 0 1 0
vn 0 1 0
vn 0 1 0
vn 0 1 0
vn 0 1 0
vn 0 1 0
vn 0 1 0
vn 0 1 0
vn 0 1 0
vn 0 1 0
vn 0 1 0
vn 0 1 0
vn 0 1 0
vn 0 1 0
vn 0 1 0
vn 0 1 0
vn 0 1 0
vn 0 1 0
vn 0 1 0
vn 0 1 0
vn 0 1 0
vn 0 1 0
vn 0 1 0
vn 0 1 0
vn 0 1 0
vn 0 1 0
vn 0 1 0
vn 0 1 0
vn 0 1 0
vn 0 1 0
vn 0 1 0
vn 0 1 0
vn 0 1 0
vn 0 1 0
vn 0 1 0
vn 0 1 0
vn 0 1 0
vn 0 1 0
vn 0 1 0
vn 0 1 0
vn 0 1 0
vn 0 1 0
vn 0 1 0
vn 0 1 0
vn 0 1 0
vn 0 1 0
vn 0 1 0
vn 0 1 0
vn 0 1 0
vn 0 1 0
vn 0 1 0
vn 0 1 0
vn 0 1 0
vn 0 1 0
vn 0 1 0
vn 0 1 0
vn 0 1 0
vn 0 1 0
vn 0 1 0
vn 0 1 0
vn 0 1 0
vn 0 1 0
vn 0 1 0
vn 0 1 0
vn 0 1 0
vn 0 1 0
vn 0 1 0
vn 0 1 0
vn 0 1 0
vn 0 1 0
vn 0 1 0
vn 1 -0 0
vn 1 -0 0
vn 1 -0 0
vn 1 -0 0
vn 0.99732 -0 0.07311
vn 0.9894 -0 0.14518
vn 0.9894 -0 0.14518
vn 0.99732 -0 0.07311
vn 0.9894 -0 0.14518
vn 0.95856 -0 0.28489
vn 0.95856 -0 0.28489
vn 0.9894 -0 0.14518
vn 0.95856 -0 0.28489
vn 0.91003 -0 0.41454
vn 0.91003 -0 0.41454
vn 0.95856 -0 0.28489
vn 0.91003 -0 0.41454
vn 0.84737 -0 0.531
vn 0.84737 -0 0.531
vn 0.91003 -0 0.41454
vn 0.84737 -0 0.531
vn 0.77437 -0 0.63273
vn 0.77437 -0 0.63273
vn 0.84737 -0 0.531
vn 0.77437 -0 0.63273
vn 0.69448 -0 0.71951
vn 0.69448 -0 0.71951
vn 0.77437 -0 0.63273
vn 0.69448 -0 0.71951
vn 0.61049 -0 0.79202
vn 0.69448 -0 0.71951
vn 0.61049 -0 0.79202
vn 0.61049 -0 0.79202
vn 0.52444 -0 0.85145
vn 0.61049 -0 0.79202
vn 0.52444 -0 0.85145
vn 0.52444 -0 0.85145
vn 0.48053 -0 0.87698
vn 0.52444 -0 0.85145
vn 0.48053 -0 0.87698
vn 0.31742 -0 0.94828
vn 0.31742 -0 0.94828
vn 0.31742 -0 0.94828
vn 0.31742 -0 0.94828
vn 0.15761 -0 0.9875
vn 0.08375 -0 0.99649
vn 0.15761 -0 0.9875
vn 0.08375 -0 0.99649
vn 0.08375 -0 0.99649
vn -0.0645 0 0.99792
vn 0.08375 -0 0.99649
vn -0.0645 0 0.99792
vn -0.0645 0 0.99792
vn -0.21762 0 0.97603
vn -0.0645 0 0.99792
vn -0.21762 0 0.97603
vn 0.80521 -0 -0.59299
vn 0.84615 -0 -0.53295
vn 0.84615 -0 -0.53295
vn 0.80521 -0 -0.59299
vn 0.84615 -0 -0.53295
vn 0.86525 -0 -0.50133
vn 0.86525 -0 -0.50133
vn 0.84615 -0 -0.53295
vn 0.86525 -0 -0.50133
vn 0.88372 -0 -0.46802
vn 0.88372 -0 -0.46802
vn 0.86525 -0 -0.50133
vn 0.88372 -0 -0.46802
vn 0.9172 -0 -0.39842
vn 0.9172 -0 -0.39842
vn 0.88372 -0 -0.46802
vn 0.9172 -0 -0.39842
vn 0.94587 -0 -0.32454
vn 0.94587 -0 -0.32454
vn 0.9172 -0 -0.39842
vn 0.94587 -0 -0.32454
vn 0.96903 -0 -0.24695
vn 0.96903 -0 -0.24695
vn 0.94587 -0 -0.32454
vn 0.96903 -0 -0.24695
vn 0.98606 -0 -0.16638
vn 0.98606 -0 -0.16638
vn 0.96903 -0 -0.24695
vn 0.98606 -0 -0.16638
vn 0.99649 -0 -0.08372
vn 0.99649 -0 -0.08372
vn 0.98606 -0 -0.16638
vn 0.99649 -0 -0.08372
vn 0.99912 -0 -0.04196
vn 0.99912 -0 -0.04196
vn 0.99649 -0 -0.08372

# Faces:
usemtl Color_009
f 1/1/1 2/2/2 3/3/3
f 2/2/2 1/1/1 4/4/4
f 4/4/4 1/1/1 5/5/5
f 6/6/6 7/7/7 8/8/8
f 7/7/7 6/6/6 9/9/9
f 10/10/10 11/11/11 12/12/12
f 11/11/11 10/10/10 13/13/13
f 14/14/14 15/15/15 16/16/16
f 15/15/15 14/14/14 17/17/17
f 18/18/18 19/19/19 20/20/20
f 19/19/19 18/18/18 21/21/21
f 22/22/22 23/23/23 24/24/24
f 23/23/23 22/22/22 25/25/25
f 26/26/26 27/27/27 28/28/28
f 27/27/27 26/26/26 29/29/29
f 30/30/30 31/31/31 32/32/32
f 31/31/31 30/30/30 33/33/33
f 34/34/34 35/35/35 36/36/36
f 35/35/35 34/34/34 37/37/37
f 38/38/38 39/39/39 40/40/40
f 39/39/39 38/38/38 41/41/41
f 42/42/42 43/43/43 44/44/44
f 43/43/43 42/42/42 45/45/45
f 46/46/46 47/47/47 48/48/48
f 47/47/47 46/46/46 49/49/49
f 50/50/50 51/51/51 52/52/52
f 51/51/51 50/50/50 53/53/53
f 54/54/54 55/55/55 56/56/56
f 55/55/55 54/54/54 57/57/57
f 58/58/58 59/59/59 60/60/60
f 59/59/59 58/58/58 61/61/61
f 62/62/62 63/63/63 64/64/64
f 63/63/63 62/62/62 65/65/65
f 66/66/66 67/67/67 68/68/68
f 67/67/67 66/66/66 69/69/69
f 67/67/67 69/69/69 70/70/70
f 70/70/70 69/69/69 71/71/71
f 70/70/70 71/71/71 72/72/72
f 72/72/72 71/71/71 73/73/73
f 72/72/72 73/73/73 74/74/74
f 74/74/74 73/73/73 75/75/75
f 74/74/74 75/75/75 76/76/76
f 76/76/76 75/75/75 77/77/77
f 76/76/76 77/77/77 78/78/78
f 78/78/78 77/77/77 79/79/79
f 79/79/79 77/77/77 80/80/80
f 79/79/79 80/80/80 81/81/81
f 81/81/81 80/80/80 82/82/82
f 81/81/81 82/82/82 83/83/83
f 83/83/83 82/82/82 84/84/84
f 84/84/84 82/82/82 85/85/85
f 84/84/84 85/85/85 86/86/86
f 86/86/86 85/85/85 87/87/87
f 86/86/86 87/87/87 88/88/88
f 88/88/88 87/87/87 89/89/89
f 89/89/89 87/87/87 90/90/90
f 89/89/89 90/90/90 91/91/91
f 91/91/91 90/90/90 92/92/92
f 92/92/92 90/90/90 93/93/93
f 92/92/92 93/93/93 94/94/94
f 94/94/94 93/93/93 95/95/95
f 95/95/95 93/93/93 96/96/96
f 96/96/96 93/93/93 97/97/97
f 97/97/97 93/93/93 98/98/98
f 98/98/98 93/93/93 99/99/99
f 98/98/98 99/99/99 100/100/100
f 100/100/100 99/99/99 101/101/101
f 101/101/101 99/99/99 102/102/102
f 101/101/101 102/102/102 103/103/103
f 103/103/103 102/102/102 104/104/104
f 104/104/104 102/102/102 105/105/105
f 104/104/104 105/105/105 106/106/106
f 106/106/106 105/105/105 107/107/107
f 106/106/106 107/107/107 108/108/108
f 108/108/108 107/107/107 109/109/109
f 108/108/108 109/109/109 110/110/110
f 111/111/111 68/68/68 112/112/112
f 68/68/68 111/111/111 66/66/66
f 112/112/112 68/68/68 113/113/113
f 112/112/112 113/113/113 114/114/114
f 114/114/114 113/113/113 115/115/115
f 114/114/114 115/115/115 116/116/116
f 116/116/116 115/115/115 117/117/117
f 116/116/116 117/117/117 118/118/118
f 118/118/118 117/117/117 119/119/119
f 118/118/118 119/119/119 120/120/120
f 120/120/120 119/119/119 121/121/121
f 120/120/120 121/121/121 122/122/122
f 120/120/120 122/122/122 123/123/123
f 123/123/123 122/122/122 124/124/124
f 123/123/123 124/124/124 125/125/125
f 125/125/125 124/124/124 126/126/126
f 125/125/125 126/126/126 127/127/127
f 125/125/125 127/127/127 128/128/128
f 125/125/125 128/128/128 129/129/129
f 129/129/129 128/128/128 130/130/130
f 129/129/129 130/130/130 131/131/131
f 131/131/131 130/130/130 132/132/132
f 131/131/131 132/132/132 133/133/133
f 131/131/131 133/133/133 134/134/134
f 134/134/134 133/133/133 135/135/135
f 134/134/134 135/135/135 136/136/136
f 134/134/134 136/136/136 137/137/137
f 137/137/137 136/136/136 138/138/138
f 137/137/137 138/138/138 139/139/139
f 137/137/137 139/139/139 97/97/97
f 97/97/97 139/139/139 140/140/140
f 97/97/97 140/140/140 141/141/141
f 97/97/97 141/141/141 96/96/96
f 142/142/142 143/143/143 144/144/144
f 143/143/143 142/142/142 145/145/145
f 146/146/146 147/147/147 148/148/148
f 147/147/147 146/146/146 149/149/149
f 150/150/150 151/151/151 152/152/152
f 151/151/151 150/150/150 153/153/153
f 154/154/154 155/155/155 156/156/156
f 155/155/155 154/154/154 157/157/157
f 158/158/158 159/159/159 160/160/160
f 159/159/159 158/158/158 161/161/161
f 162/162/162 163/163/163 164/164/164
f 163/163/163 162/162/162 165/165/165
f 166/166/166 167/167/167 168/168/168
f 167/167/167 166/166/166 169/169/169
f 170/170/170 171/171/171 172/172/172
f 171/171/171 170/170/170 173/173/173
f 174/174/174 175/175/175 176/176/176
f 175/175/175 174/174/174 177/177/177
f 178/178/178 179/179/179 180/180/180
f 179/179/179 178/178/178 181/181/181
f 182/182/182 183/183/183 184/184/184
f 183/183/183 182/182/182 185/185/185
f 186/186/186 187/187/187 188/188/188
f 187/187/187 186/186/186 189/189/189
f 190/190/190 191/191/191 192/192/192
f 191/191/191 190/190/190 193/193/193
f 194/194/194 195/195/195 196/196/196
f 195/195/195 194/194/194 197/197/197
f 198/198/198 199/199/199 200/200/200
f 199/199/199 198/198/198 201/201/201
f 202/202/202 203/203/203 204/204/204
f 203/203/203 202/202/202 205/205/205
f 206/206/206 207/207/207 208/208/208
f 207/207/207 206/206/206 209/209/209
f 210/210/210 211/211/211 212/212/212
f 211/211/211 210/210/210 213/213/213
f 214/214/214 215/215/215 216/216/216
f 215/215/215 214/214/214 217/217/217
f 218/218/218 219/219/219 220/220/220
f 219/219/219 218/218/218 221/221/221
f 222/222/222 223/223/223 224/224/224
f 223/223/223 222/222/222 225/225/225
f 226/226/226 227/227/227 228/228/228
f 227/227/227 226/226/226 229/229/229
f 230/230/230 231/231/231 232/232/232
f 231/231/231 230/230/230 233/233/233
